<svg xmlns="http://www.w3.org/2000/svg" width="464" height="355" viewBox="0 0 464 355">
  <g id="No_data-pana_1_" data-name="No data-pana(1)" transform="translate(-146.088 -64.443)">
    <g id="freepik--background-simple--inject-18" transform="translate(146.088 67.719)">
      <path id="Pfad_1506" data-name="Pfad 1506" d="M150.612,159.391c-8.082,63.5,24.532,128.608,76.059,166.682S346,376.715,409.451,367.591c45.292-6.483,90.215-24.219,122.137-56.955s48.751-81.921,35.893-125.778c-4.861-16.562-14.4-32.613-29.544-40.932-24.181-13.25-54.009-3.54-79.764,6.417S402.638,170.1,378.4,156.968c-18.619-10.117-28.189-30.948-41.834-47.15-23.205-27.55-60.908-42.181-96.649-37.5a102.859,102.859,0,0,0-13.265,2.64c-38.025,10.193-66.773,41.4-75.073,79.839Z" transform="translate(-149.386 -71.457)" fill="#ebebeb"/>
    </g>
    <g id="freepik--Character--inject-18" transform="translate(469.09 64.443)">
      <path id="Pfad_1515" data-name="Pfad 1515" d="M569.576,105.371c-2.786.635-4.141,3.848-4.407,6.691s.095,5.857-1.1,8.453c-1.346,2.919-4.558,5.08-4.663,8.292-.066,1.962,1.1,3.791,1.042,5.771-.095,3.222-3.374,5.686-3.554,8.87-.123,2.322,1.422,4.539,1.052,6.833-.284,1.782-1.677,3.184-2.265,4.89-1.166,3.412,1.175,7.155,4.217,9.069a13.827,13.827,0,0,0,20.138-6.425c1.687-4.094,1.317-8.709.948-13.116q-1.706-20.622-2.54-41.3" transform="translate(-493.695 -69.852)" fill="#263238"/>
      <path id="Pfad_1516" data-name="Pfad 1516" d="M561.82,154.04a3.232,3.232,0,0,0,1.279-1.507,5.487,5.487,0,0,0,.322-2.322,12.761,12.761,0,0,0-.692-3.061,8.822,8.822,0,0,1-.493-3.886,8.927,8.927,0,0,1,2.255-3.886,8.312,8.312,0,0,0,1.279-1.943,3.137,3.137,0,0,0,.152-2.274c-.493-1.545-2.009-2.682-2.7-4.473a4.738,4.738,0,0,1-.152-2.767,10.983,10.983,0,0,1,.948-2.473,21.236,21.236,0,0,0,1.9-4.464c.663-3,.351-5.876.805-8.235a9.117,9.117,0,0,1,2.4-5.042,5.507,5.507,0,0,1,1.251-.948,1.962,1.962,0,0,1,.5-.18,7.288,7.288,0,0,0-1.621,1.213,9.268,9.268,0,0,0-2.189,4.975,30.845,30.845,0,0,0-.265,3.791,23.342,23.342,0,0,1-.436,4.445,21.291,21.291,0,0,1-1.9,4.568c-.711,1.488-1.365,3.232-.739,4.862s2.132,2.758,2.71,4.5a3.678,3.678,0,0,1-.18,2.606,8.967,8.967,0,0,1-1.422,2.132c-.948,1.194-1.981,2.331-2.208,3.658a8.53,8.53,0,0,0,.436,3.724,12.908,12.908,0,0,1,.625,3.146,5.316,5.316,0,0,1-.426,2.407,2.9,2.9,0,0,1-.948,1.194A1.5,1.5,0,0,1,561.82,154.04Z" transform="translate(-494.032 -70.018)" fill="#455a64"/>
      <path id="Pfad_1517" data-name="Pfad 1517" d="M551.232,180.37,542.7,205.01l-35.671,1.9-5.952,13.268,37.244,3.791a14.073,14.073,0,0,0,18.594-8.273l9.941-27.748Z" transform="translate(-490.854 -74.017)" fill="#b78876"/>
      <path id="Pfad_1518" data-name="Pfad 1518" d="M628.151,416.679s-26.137-83.037-26.7-85.728c-.5-2.445,9.477-62.2,10.747-77.711l-35.32,1.317v.351l-15.011.834,13.438,169.75h16.253l-1.611-56.34c10.027,26.9,24.394,54.331,24.394,54.331Z" transform="translate(-494.034 -78.095)" fill="#b78876"/>
      <path id="Pfad_1519" data-name="Pfad 1519" d="M591.853,394.9c0-.512-.2-18.878-.2-18.878-.2,1.1-6.226-15.94-6.084-16.973C585.646,358.51,591.853,394.9,591.853,394.9Z" transform="translate(-495.274 -83.629)" fill="#a36957"/>
      <path id="Pfad_1520" data-name="Pfad 1520" d="M584.842,350.53a3.681,3.681,0,0,0-.1,1.033,25.745,25.745,0,0,0,0,2.843,18.9,18.9,0,0,0,.161,1.943c.076.7.18,1.44.341,2.208a39.213,39.213,0,0,0,1.336,4.947c1.175,3.44,2.483,6.444,3.4,8.624.436.948.815,1.848,1.137,2.568a4.094,4.094,0,0,0,.474.948,3.593,3.593,0,0,0-.284-.948c-.218-.625-.55-1.526-.948-2.635-.834-2.218-2.085-5.25-3.251-8.652a41.073,41.073,0,0,1-1.355-4.871c-.171-.758-.284-1.488-.388-2.17s-.18-1.327-.227-1.9c-.114-1.175-.161-2.123-.19-2.786A4.281,4.281,0,0,0,584.842,350.53Z" transform="translate(-495.228 -83.107)" fill="#a36957"/>
      <path id="Pfad_1521" data-name="Pfad 1521" d="M575.113,435.786V434.26l16.651-.73.047,6.3-1.024.066c-4.577.265-23.266,1.042-26.317.123C561.049,439,575.113,435.786,575.113,435.786Z" transform="translate(-494.142 -87.526)" fill="#002a41"/>
      <path id="Pfad_1522" data-name="Pfad 1522" d="M592.029,439.78a2.177,2.177,0,0,1-.284,0l-.815.057-3.014.133c-2.54.1-6.056.2-9.932.218s-7.4-.047-9.951-.123l-3-.123H563.92a1.747,1.747,0,0,1,.284,0h.825l3.014.057c2.54,0,6.056.076,9.932.057s7.4-.085,9.941-.152l3.014-.076h1.1Z" transform="translate(-494.142 -87.853)" fill="#263238"/>
      <path id="Pfad_1523" data-name="Pfad 1523" d="M569.912,440.2a7.27,7.27,0,0,0-.569-1.431,6.828,6.828,0,0,0-1.033-1.147,2.2,2.2,0,0,1,1.2,1.043A2.265,2.265,0,0,1,569.912,440.2Z" transform="translate(-494.371 -87.74)" fill="#263238"/>
      <path id="Pfad_1524" data-name="Pfad 1524" d="M575.131,437.634a3.747,3.747,0,0,1-.521-.635c-.246-.379-.4-.711-.351-.739s.275.246.521.625S575.179,437.606,575.131,437.634Z" transform="translate(-494.682 -87.668)" fill="#263238"/>
      <path id="Pfad_1525" data-name="Pfad 1525" d="M576.542,436.949c0,.047-.3-.133-.588-.389s-.493-.493-.455-.531.3.133.588.389S576.58,436.864,576.542,436.949Z" transform="translate(-494.747 -87.656)" fill="#263238"/>
      <path id="Pfad_1526" data-name="Pfad 1526" d="M577.394,435.294a2,2,0,0,1-.872.114,1.9,1.9,0,0,1-.862-.085,1.972,1.972,0,0,1,.862-.114,1.9,1.9,0,0,1,.872.085Z" transform="translate(-494.756 -87.613)" fill="#263238"/>
      <path id="Pfad_1527" data-name="Pfad 1527" d="M577.685,434.14a1.762,1.762,0,0,1-.948.284,1.791,1.791,0,0,1-.948-.133,5.465,5.465,0,0,1,.948-.076A4.923,4.923,0,0,1,577.685,434.14Z" transform="translate(-494.762 -87.557)" fill="#263238"/>
      <path id="Pfad_1528" data-name="Pfad 1528" d="M574.417,436.1a2.908,2.908,0,0,1-1.071,0,6.123,6.123,0,0,1-1.128-.246,3.057,3.057,0,0,1-.654-.265.6.6,0,0,1-.265-.332.417.417,0,0,1,.161-.426,1.971,1.971,0,0,1,2.767,1.279.72.72,0,0,1,0,.284,3.052,3.052,0,0,0-.493-.948,1.952,1.952,0,0,0-.948-.588,1.687,1.687,0,0,0-1.27.095c-.161.123-.095.322.085.436a3.422,3.422,0,0,0,.607.256,7.98,7.98,0,0,0,1.09.275C574.01,436.071,574.417,436.071,574.417,436.1Z" transform="translate(-494.527 -87.583)" fill="#263238"/>
      <path id="Pfad_1529" data-name="Pfad 1529" d="M574.292,436.126a1,1,0,0,1-.133-.739,1.763,1.763,0,0,1,.294-.777,1.08,1.08,0,0,1,.881-.55.436.436,0,0,1,.332.493,1.126,1.126,0,0,1-.18.474,3.913,3.913,0,0,1-.5.654,1.554,1.554,0,0,1-.607.426,6.651,6.651,0,0,0,.5-.531,3.678,3.678,0,0,0,.445-.635c.142-.227.246-.635,0-.682s-.531.246-.692.455a1.734,1.734,0,0,0-.3.692,3.335,3.335,0,0,0-.038.72Z" transform="translate(-494.676 -87.553)" fill="#263238"/>
      <path id="Pfad_1530" data-name="Pfad 1530" d="M592.886,434.994s-.474,0-1.223.047a5.25,5.25,0,0,0-4.331,3.478c-.246.711-.265,1.194-.3,1.185s0-.123,0-.332a4.251,4.251,0,0,1,.171-.9A5.183,5.183,0,0,1,588.868,436a5.108,5.108,0,0,1,2.777-1.09,3.973,3.973,0,0,1,.948,0A1.193,1.193,0,0,1,592.886,434.994Z" transform="translate(-495.35 -87.596)" fill="#263238"/>
      <path id="Pfad_1531" data-name="Pfad 1531" d="M584.533,438.379a9.3,9.3,0,0,1-2.426.237,8.936,8.936,0,0,1-2.417-.208c0-.057,1.08,0,2.417,0S584.523,438.322,584.533,438.379Z" transform="translate(-494.966 -87.778)" fill="#263238"/>
      <path id="Pfad_1532" data-name="Pfad 1532" d="M588.194,438.35s-.085.227-.2.474-.171.474-.227.464-.085-.256.047-.55S588.156,438.3,588.194,438.35Z" transform="translate(-495.386 -87.777)" fill="#263238"/>
      <path id="Pfad_1533" data-name="Pfad 1533" d="M589.475,436.739a1.052,1.052,0,0,1-.237.379c-.171.171-.341.284-.388.246s.066-.208.237-.389S589.428,436.692,589.475,436.739Z" transform="translate(-495.445 -87.693)" fill="#263238"/>
      <path id="Pfad_1534" data-name="Pfad 1534" d="M591.3,435.995c0,.057-.227.057-.474.142s-.417.218-.464.18.095-.265.4-.37S591.317,435.938,591.3,435.995Z" transform="translate(-495.524 -87.65)" fill="#263238"/>
      <path id="Pfad_1535" data-name="Pfad 1535" d="M592.633,435.638c0,.057-.066.142-.208.19s-.265.057-.284,0,.076-.142.208-.19S592.614,435.591,592.633,435.638Z" transform="translate(-495.618 -87.634)" fill="#263238"/>
      <path id="Pfad_1536" data-name="Pfad 1536" d="M616.411,433.87l-.625-1.393L630.674,425l2.625,5.686-.948.483c-4.066,2.113-20.792,10.472-23.958,10.889C604.9,442.561,616.411,433.87,616.411,433.87Z" transform="translate(-496.433 -87.079)" fill="#002a41"/>
      <path id="Pfad_1537" data-name="Pfad 1537" d="M633.357,430.57l-.246.152-.73.379-2.691,1.365c-2.275,1.128-5.44,2.654-8.975,4.265s-6.776,2.985-9.126,3.961l-2.8,1.128-.758.294a1.077,1.077,0,0,1-.275.085l.256-.123.749-.332,2.767-1.185c2.341-1,5.563-2.407,9.1-4.018s6.71-3.108,9-4.208l2.71-1.3.749-.351Z" transform="translate(-496.435 -87.371)" fill="#263238"/>
      <path id="Pfad_1538" data-name="Pfad 1538" d="M613.381,440.646a6.988,6.988,0,0,0-1.109-1.08,6.576,6.576,0,0,0-1.412-.625,2.663,2.663,0,0,1,2.521,1.706Z" transform="translate(-496.597 -87.809)" fill="#263238"/>
      <path id="Pfad_1539" data-name="Pfad 1539" d="M617.055,436.17a3.4,3.4,0,0,1-.739-.36c-.379-.246-.654-.483-.625-.531s.36.114.739.36S617.083,436.123,617.055,436.17Z" transform="translate(-496.85 -87.617)" fill="#263238"/>
      <path id="Pfad_1540" data-name="Pfad 1540" d="M618.037,434.976c0,.047-.322,0-.692-.114s-.644-.256-.635-.313a1.412,1.412,0,0,1,.7.114C617.771,434.749,618.056,434.881,618.037,434.976Z" transform="translate(-496.903 -87.579)" fill="#263238"/>
      <path id="Pfad_1541" data-name="Pfad 1541" d="M618.163,433.08a2.211,2.211,0,0,1-.749.464,2,2,0,0,1-.825.275,2.233,2.233,0,0,1,.739-.464A2.067,2.067,0,0,1,618.163,433.08Z" transform="translate(-496.897 -87.502)" fill="#263238"/>
      <path id="Pfad_1542" data-name="Pfad 1542" d="M617.955,431.9a2.581,2.581,0,0,1-.768.654,1.649,1.649,0,0,1-.948.284,5.008,5.008,0,0,1,.862-.464C617.567,432.118,617.908,431.852,617.955,431.9Z" transform="translate(-496.878 -87.44)" fill="#263238"/>
      <path id="Pfad_1543" data-name="Pfad 1543" d="M615.822,435.042a3.071,3.071,0,0,1-.948.436,7.439,7.439,0,0,1-1.137.237,2.844,2.844,0,0,1-.7,0,.56.56,0,0,1-.379-.19.417.417,0,0,1,0-.455,1.952,1.952,0,0,1,2.436-.474,1.9,1.9,0,0,1,.607.5c.114.152.161.246.152.256a2.844,2.844,0,0,0-.825-.635,1.9,1.9,0,0,0-1.071-.161,1.658,1.658,0,0,0-1.118.607c-.1.18,0,.332.256.36a3.785,3.785,0,0,0,.654,0,7.482,7.482,0,0,0,1.118-.2C615.4,435.175,615.822,435.014,615.822,435.042Z" transform="translate(-496.687 -87.569)" fill="#263238"/>
      <path id="Pfad_1544" data-name="Pfad 1544" d="M615.693,435.122a1.052,1.052,0,0,1-.417-.625,1.781,1.781,0,0,1-.057-.824,1.071,1.071,0,0,1,.588-.862c.237-.076.787.408.825.588s-.275.085-.294.237a3.3,3.3,0,0,1-.19.787,1.478,1.478,0,0,1-.379.644,6.91,6.91,0,0,0,.246-.682,4.858,4.858,0,0,0,.142-.768c0-.265,0-.673-.3-.607s-.389.436-.455.7a1.638,1.638,0,0,0,0,.749A4.14,4.14,0,0,0,615.693,435.122Z" transform="translate(-496.824 -87.487)" fill="#263238"/>
      <path id="Pfad_1545" data-name="Pfad 1545" d="M632.26,426.36a6.729,6.729,0,0,0-1.1.55,5.165,5.165,0,0,0-2.521,4.947c.057.758.237,1.194.2,1.213a1.2,1.2,0,0,1-.142-.3,4.91,4.91,0,0,1-.2-.891,5.013,5.013,0,0,1,2.587-5.08,4.5,4.5,0,0,1,.843-.36A1.164,1.164,0,0,1,632.26,426.36Z" transform="translate(-497.517 -87.151)" fill="#263238"/>
      <path id="Pfad_1546" data-name="Pfad 1546" d="M625.937,432.9a13.533,13.533,0,0,1-4.407,2.009c0-.057,1-.436,2.208-.948S625.908,432.853,625.937,432.9Z" transform="translate(-497.155 -87.493)" fill="#263238"/>
      <path id="Pfad_1547" data-name="Pfad 1547" d="M629.28,431.47c.047,0,0,.237,0,.512v.521a.774.774,0,0,1-.19-.521C629.09,431.669,629.232,431.441,629.28,431.47Z" transform="translate(-497.551 -87.418)" fill="#263238"/>
      <path id="Pfad_1548" data-name="Pfad 1548" d="M629.782,429.47c.047,0,0,.218-.057.445s-.2.4-.246.379,0-.218.057-.445S629.725,429.451,629.782,429.47Z" transform="translate(-497.57 -87.313)" fill="#263238"/>
      <path id="Pfad_1549" data-name="Pfad 1549" d="M631.139,428c0,.057-.19.142-.379.322s-.294.37-.341.351,0-.284.208-.5A.622.622,0,0,1,631.139,428Z" transform="translate(-497.619 -87.236)" fill="#263238"/>
      <path id="Pfad_1550" data-name="Pfad 1550" d="M632.209,427.179a.379.379,0,0,1-.114.256c-.114.1-.218.161-.256.123s0-.152.114-.256S632.171,427.141,632.209,427.179Z" transform="translate(-497.694 -87.193)" fill="#263238"/>
      <path id="Pfad_1551" data-name="Pfad 1551" d="M609.022,219.976l-2.767-33.833,14.215.256s.654-4.994-1.441-15.931c-1.289-6.71-5.753-10.823-10.766-13.268v-.095l-.436-.114a40.589,40.589,0,0,0-13.04-3.4l-17.485.2s-13.353-1.706-20.716,7.856c-2.843,3.668-11.666,28.772-11.666,28.772l20.991,10.1L563.95,186.6s.4,10.093,1.687,13.268c.711,1.782,2.843,7.316,2.843,7.316l-.275,16.7Z" transform="translate(-493.148 -72.592)" fill="#0069a3"/>
      <path id="Pfad_1552" data-name="Pfad 1552" d="M602.247,182.347l-2.6,11.05h24.479l-1.611-18.537Z" transform="translate(-496.011 -73.712)" fill="#0069a3"/>
      <path id="Pfad_1553" data-name="Pfad 1553" d="M624.256,194.391a19.619,19.619,0,0,0-3.241-.322c-2.009-.114-4.738-.218-7.847-.2s-5.847.152-7.856.3a18.576,18.576,0,0,0-3.232.4,20.525,20.525,0,0,0,3.26,0c2-.066,4.739-.142,7.828-.152s5.828,0,7.837.047A20.516,20.516,0,0,0,624.256,194.391Z" transform="translate(-496.138 -74.72)" fill="#263238"/>
      <path id="Pfad_1554" data-name="Pfad 1554" d="M601.264,174.77a14.764,14.764,0,0,0-.076,2.843c0,1.734.076,4.122.18,6.767s.227,5.042.341,6.767a14.117,14.117,0,0,0,.3,2.843,14.823,14.823,0,0,0,.076-2.843c0-1.734-.076-4.132-.18-6.776s-.227-5.032-.341-6.766A13.94,13.94,0,0,0,601.264,174.77Z" transform="translate(-496.089 -73.707)" fill="#263238"/>
      <g id="Gruppe_1887" data-name="Gruppe 1887" transform="translate(82.904 110.615)" opacity="0.3">
        <path id="Pfad_1555" data-name="Pfad 1555" d="M577.77,184.87s5.44,40.343,20.735,39.272c0,0,6.89-.076,9.1-4.653v-1.8Z" transform="translate(-577.77 -184.87)"/>
      </g>
      <g id="Gruppe_1888" data-name="Gruppe 1888" transform="translate(102.246 103.437)" opacity="0.3">
        <path id="Pfad_1556" data-name="Pfad 1556" d="M601.108,177.28l-2.928,19.778,1.9,3.469,3.127-6.785-1.327-.038Z" transform="translate(-598.18 -177.28)"/>
      </g>
      <path id="Pfad_1557" data-name="Pfad 1557" d="M569.418,208.747A3.789,3.789,0,0,1,569,207.8c-.237-.616-.55-1.516-.948-2.644a81.608,81.608,0,0,1-2.341-8.956,63.5,63.5,0,0,1-1.156-9.183c-.057-1.185-.076-2.142-.057-2.843a3.792,3.792,0,0,1,.066-1.024c.076,0,.133,1.459.332,3.791a84.358,84.358,0,0,0,1.3,9.107c.7,3.525,1.545,6.681,2.189,8.946.3,1.052.559,1.952.768,2.691a4.632,4.632,0,0,1,.265,1.061Z" transform="translate(-494.171 -74.157)" fill="#263238"/>
      <path id="Pfad_1558" data-name="Pfad 1558" d="M576.143,222.17a4.892,4.892,0,0,1-.844-1.9,4.55,4.55,0,0,1-.37-2.085,4.948,4.948,0,0,1,.844,1.943A4.74,4.74,0,0,1,576.143,222.17Z" transform="translate(-494.717 -76.02)" fill="#263238"/>
      <path id="Pfad_1559" data-name="Pfad 1559" d="M578.409,221.9a8.719,8.719,0,0,1-.085-5.914,19.741,19.741,0,0,1,0,2.957A19.493,19.493,0,0,1,578.409,221.9Z" transform="translate(-494.87 -75.904)" fill="#263238"/>
      <path id="Pfad_1560" data-name="Pfad 1560" d="M566.328,203c-.066.114-4.947-2.2-10.908-5.174s-10.747-5.5-10.69-5.62,4.947,2.2,10.908,5.174S566.385,202.881,566.328,203Z" transform="translate(-493.138 -74.635)" fill="#263238"/>
      <path id="Pfad_1561" data-name="Pfad 1561" d="M576.2,154.693c.1-4.8.133-9.837.133-9.837s-6.151-1.185-7.221-9.278c-1.023-7.714,1.839-25.825,1.839-25.825h0c8.984-3.393,18.319-.313,24.469,6.966h0l-1.526,38.922a8.36,8.36,0,0,1-9.041,7.743h0C579.959,163.147,576.092,159.261,576.2,154.693Z" transform="translate(-494.401 -70.112)" fill="#b78876"/>
      <path id="Pfad_1562" data-name="Pfad 1562" d="M570.56,125.048a1.043,1.043,0,0,0,.948,1.071,1,1,0,0,0,1.09-.948,1.033,1.033,0,0,0-.948-1.061.948.948,0,0,0-1.09.938Z" transform="translate(-494.489 -70.934)" fill="#263238"/>
      <path id="Pfad_1563" data-name="Pfad 1563" d="M570.159,123.613c.123.133.948-.426,2.038-.389s1.9.607,2.028.474-.057-.3-.407-.578a2.844,2.844,0,0,0-1.63-.54,2.663,2.663,0,0,0-1.621.474C570.216,123.31,570.093,123.547,570.159,123.613Z" transform="translate(-494.467 -70.855)" fill="#263238"/>
      <path id="Pfad_1564" data-name="Pfad 1564" d="M582.47,125.788a1.033,1.033,0,0,0,.948,1.071.948.948,0,0,0,1.09-.948,1.024,1.024,0,0,0-.948-1.061.948.948,0,0,0-1.09.938Z" transform="translate(-495.112 -70.973)" fill="#263238"/>
      <path id="Pfad_1565" data-name="Pfad 1565" d="M582.389,124.353c.123.142.948-.417,2.038-.389s1.9.607,2.038.474-.066-.3-.417-.569a2.72,2.72,0,0,0-1.621-.55,2.758,2.758,0,0,0-1.63.474C582.456,124.05,582.332,124.287,582.389,124.353Z" transform="translate(-495.107 -70.894)" fill="#263238"/>
      <path id="Pfad_1566" data-name="Pfad 1566" d="M577.756,132.489a7.164,7.164,0,0,0-1.8-.37c-.284,0-.55-.1-.588-.294a1.384,1.384,0,0,1,.209-.843l.891-2.132a37.06,37.06,0,0,0,2.038-5.61,37.551,37.551,0,0,0-2.483,5.43c-.294.749-.588,1.469-.862,2.151a1.659,1.659,0,0,0-.171,1.109.711.711,0,0,0,.455.436,1.943,1.943,0,0,0,.483.076A7.231,7.231,0,0,0,577.756,132.489Z" transform="translate(-494.719 -70.89)" fill="#263238"/>
      <path id="Pfad_1567" data-name="Pfad 1567" d="M576.74,146.726a20.526,20.526,0,0,0,10.86-2.606s-2.758,5.468-10.8,4.511Z" transform="translate(-494.812 -72.065)" fill="#a36957"/>
      <path id="Pfad_1568" data-name="Pfad 1568" d="M585.933,120.916c-.227.351-1.08.2-2.028,0s-1.782-.36-1.9-.768.881-.948,2.151-.692S586.16,120.613,585.933,120.916Z" transform="translate(-495.087 -70.688)" fill="#263238"/>
      <path id="Pfad_1569" data-name="Pfad 1569" d="M574.252,119.252c-.085.408-1,.559-2.038.607s-1.962,0-2.085-.417.758-1,2.019-1.061S574.337,118.863,574.252,119.252Z" transform="translate(-494.466 -70.635)" fill="#263238"/>
      <path id="Pfad_1570" data-name="Pfad 1570" d="M577.892,135.807a.55.55,0,0,0-.616.284.624.624,0,1,0,.379-.313" transform="translate(-494.836 -71.544)" fill="#a36957"/>
      <path id="Pfad_1571" data-name="Pfad 1571" d="M578.128,135.917c0-.047-.18-.322-.663-.218a.853.853,0,0,0-.607.6.908.908,0,0,0,1.4,1,.8.8,0,0,0,.341-.787c-.095-.5-.464-.578-.483-.512s.133.237.1.531a.445.445,0,0,1-.227.351.483.483,0,0,1-.483,0,.5.5,0,0,1-.171-.464.464.464,0,0,1,.256-.351C577.863,135.907,578.1,135.983,578.128,135.917Z" transform="translate(-494.816 -71.54)" fill="#263238"/>
      <path id="Pfad_1572" data-name="Pfad 1572" d="M591.829,125.878c-.948,2.218-3.3,3.933-2.976,6.331.208,1.545,1.2,2.985,1.014,4.539-.246,1.9-2.265,3.3-2.559,5.241-.351,2.379,1.971,4.227,2.891,6.444,1.355,3.241-.37,6.88-.417,10.425a11.126,11.126,0,0,0,9.856,10.823c2.161.18,4.6-.474,5.686-2.331.948-1.535.739-3.488,1.289-5.184.834-2.54,3.251-4.4,3.791-7.013.948-4.738-4.833-8.719-4.454-13.571.161-2.075,1.441-3.876,1.981-5.885a8.643,8.643,0,0,0-1.687-7.667c-1.431-1.7-3.5-2.843-4.738-4.663-1.374-2.094-1.422-4.738-1.9-7.212a18.177,18.177,0,0,0-28.867-10.643s-1.374,6.245,5.042,7.3,9.382-.161,10.1,2.407a6.786,6.786,0,0,0,1.9,5.866C590.4,123.907,592.891,123.3,591.829,125.878Z" transform="translate(-494.492 -69.765)" fill="#263238"/>
      <path id="Pfad_1573" data-name="Pfad 1573" d="M603.164,170.159a2.264,2.264,0,0,1-.588-.057,9.267,9.267,0,0,1-1.63-.445,11.571,11.571,0,0,1-4.966-3.668,13.136,13.136,0,0,1-2.1-3.791,15.02,15.02,0,0,1-.862-4.862,20.076,20.076,0,0,1,.682-5.411,23.167,23.167,0,0,1,.948-2.739,28,28,0,0,0,1.033-2.72,5.06,5.06,0,0,0,0-2.786,15.442,15.442,0,0,0-1.071-2.6,17.058,17.058,0,0,1-1.109-2.568,5.544,5.544,0,0,1-.2-2.72c.379-1.782,1.459-3.108,2.1-4.464a8.443,8.443,0,0,0,.853-4.037,9.524,9.524,0,0,0-2.113-5.591,16.66,16.66,0,0,0-1.6-1.564,6.481,6.481,0,0,1,1.753,1.44,9.476,9.476,0,0,1,2.312,5.686,8.757,8.757,0,0,1-.834,4.227c-.654,1.4-1.706,2.739-2.028,4.369s.445,3.345,1.289,4.994a14.763,14.763,0,0,1,1.118,2.682,5.581,5.581,0,0,1,0,3.033,29.689,29.689,0,0,1-1.09,2.815,22.279,22.279,0,0,0-.948,2.682,19.531,19.531,0,0,0-.692,5.279,13.7,13.7,0,0,0,2.786,8.415,11.637,11.637,0,0,0,4.738,3.705C602.358,170.017,603.173,170.1,603.164,170.159Z" transform="translate(-495.639 -70.727)" fill="#455a64"/>
      <path id="Pfad_1574" data-name="Pfad 1574" d="M601.193,121.534a6.7,6.7,0,0,1-1.412.208,14.7,14.7,0,0,1-3.9-.1,7.439,7.439,0,0,1-4.928-2.985,16.109,16.109,0,0,1-1.289-3.184,5.288,5.288,0,0,0-2.161-2.663c-2.076-1.317-4.511-1.478-6.634-1.734a11.571,11.571,0,0,1-5.525-1.725,5.468,5.468,0,0,1-2.265-3.156,3.175,3.175,0,0,1-.066-1.071c0-.246.057-.37.076-.37a6.71,6.71,0,0,0,.18,1.393,5.421,5.421,0,0,0,2.274,2.919,11.457,11.457,0,0,0,5.373,1.554c2.123.246,4.644.37,6.861,1.772a5.762,5.762,0,0,1,2.35,2.909,15.86,15.86,0,0,0,1.223,3.108,7.155,7.155,0,0,0,4.606,2.843,16.357,16.357,0,0,0,3.791.256A9.586,9.586,0,0,1,601.193,121.534Z" transform="translate(-494.616 -69.922)" fill="#455a64"/>
      <path id="Pfad_1575" data-name="Pfad 1575" d="M598.938,113.755a3.156,3.156,0,0,1-1.109.161,6.757,6.757,0,0,1-4.738-1.9,8.7,8.7,0,0,1-1.469-1.962c-.853-1.441-1.677-3.213-3.45-3.952a11.372,11.372,0,0,0-5.307-.464,16.282,16.282,0,0,1-4.53,0,5.686,5.686,0,0,1-2.843-1.251,3.148,3.148,0,0,1-.55-.625q-.171-.246-.142-.256a6.324,6.324,0,0,0,.815.73,5.97,5.97,0,0,0,2.739,1.061,17.19,17.19,0,0,0,4.435-.076,11.372,11.372,0,0,1,5.544.474,5.449,5.449,0,0,1,2.265,1.9,24.409,24.409,0,0,1,1.374,2.293,9.02,9.02,0,0,0,1.374,1.9,6.635,6.635,0,0,0,1.621,1.2,7.032,7.032,0,0,0,2.843.787A7.314,7.314,0,0,1,598.938,113.755Z" transform="translate(-494.71 -69.858)" fill="#455a64"/>
      <path id="Pfad_1576" data-name="Pfad 1576" d="M606.361,168.26c-.047,0,.256-.625.607-1.8a16.305,16.305,0,0,0,.625-5.08,15.467,15.467,0,0,0-2.019-7.231c-.692-1.241-1.744-2.35-2.606-3.715a6.633,6.633,0,0,1-.948-2.284,5.107,5.107,0,0,1,.208-2.559c.531-1.639,1.478-3.014,1.687-4.52a6.551,6.551,0,0,0-1.232-4.1,20.16,20.16,0,0,1-1.014-1.9,6.938,6.938,0,0,1-.54-1.981,17.172,17.172,0,0,1,.114-3.611,9.581,9.581,0,0,0-.455-5.042,4.587,4.587,0,0,0-1.118-1.478.2.2,0,0,1,.114.057,1.155,1.155,0,0,1,.3.218,3.383,3.383,0,0,1,.881,1.128,9.363,9.363,0,0,1,.616,5.146,18.175,18.175,0,0,0-.047,3.535,9.1,9.1,0,0,0,1.535,3.677,12.6,12.6,0,0,1,1.033,2.019,4.738,4.738,0,0,1,.284,2.388c-.227,1.658-1.2,3.061-1.7,4.606a4.738,4.738,0,0,0-.2,2.322,6.312,6.312,0,0,0,.891,2.113c.806,1.317,1.9,2.445,2.587,3.743a15.637,15.637,0,0,1,1.971,7.458,15.333,15.333,0,0,1-.8,5.146,9.878,9.878,0,0,1-.55,1.308,1.741,1.741,0,0,1-.237.436Z" transform="translate(-496.012 -70.875)" fill="#455a64"/>
      <path id="Pfad_1577" data-name="Pfad 1577" d="M565.627,349.971s-6.387-60.5-6.757-82.857S568.924,222.7,568.924,222.7l40.827-1.7s8.074,22.678,8.216,32.221c.284,18.518-4.919,36.8-4.321,51.488l1.365,45.3" transform="translate(-493.877 -76.263)" fill="#394054"/>
      <path id="Pfad_1578" data-name="Pfad 1578" d="M616.68,278.6a6.522,6.522,0,0,1-.673.512l-.37.256-.4.389a6.557,6.557,0,0,0-.948,1.014c-1.317,1.611-2.275,4.5-3.194,8.093a27.2,27.2,0,0,1-2.066,5.762,10.085,10.085,0,0,1-.948,1.431c-.171.227-.332.474-.531.692l-.625.625a10.15,10.15,0,0,1-3.07,1.971c-2.284,1-4.871,1.478-7.221,2.663a11.372,11.372,0,0,0-5.241,5.97c-1.156,2.568-1.9,5.26-2.843,7.781a14.026,14.026,0,0,1-4.265,6.463,11.713,11.713,0,0,1-6.634,2.094c-2.2.133-4.236.066-6.065.341a9.581,9.581,0,0,0-4.568,1.725,6.406,6.406,0,0,0-2.123,2.995,4.548,4.548,0,0,0-.161,2.322c.114.531.256.787.227.8a2.386,2.386,0,0,1-.322-.777,4.35,4.35,0,0,1,.076-2.4,6.444,6.444,0,0,1,2.132-3.156,9.714,9.714,0,0,1,4.739-1.9c1.9-.3,3.914-.265,6.084-.407a11.372,11.372,0,0,0,6.435-2.047,13.761,13.761,0,0,0,4.085-6.274c.948-2.492,1.639-5.193,2.843-7.809a11.846,11.846,0,0,1,5.478-6.207c2.445-1.213,5.032-1.677,7.259-2.644a9.94,9.94,0,0,0,2.957-1.9l.6-.6c.19-.208.351-.445.521-.663a9.148,9.148,0,0,0,.881-1.374,27.18,27.18,0,0,0,2.094-5.686c.948-3.582,1.981-6.511,3.374-8.131a6.172,6.172,0,0,1,.948-1c.152-.133.284-.265.417-.37l.389-.246a6.569,6.569,0,0,1,.73-.313Z" transform="translate(-494.172 -79.284)" fill="#fafafa"/>
      <path id="Pfad_1579" data-name="Pfad 1579" d="M616.714,249.06a4.428,4.428,0,0,1,.057.806,9.935,9.935,0,0,1-.284,2.322,14.926,14.926,0,0,1-4.615,7.127,27.415,27.415,0,0,1-4.738,3.5c-1.829,1.08-3.848,2.113-5.923,3.289a30.6,30.6,0,0,0-6.046,4.255,23.35,23.35,0,0,0-4.587,6.435,58.864,58.864,0,0,1-3.971,7,16.735,16.735,0,0,1-2.6,2.843,15.672,15.672,0,0,1-3.137,2.075,37.818,37.818,0,0,1-6.34,2.436,56.866,56.866,0,0,0-5.573,1.9,21.334,21.334,0,0,0-4.246,2.274,13.147,13.147,0,0,0-2.663,2.455,12.178,12.178,0,0,0-1.6,2.653,5.015,5.015,0,0,1,.265-.768,9.482,9.482,0,0,1,1.185-2.009,12.767,12.767,0,0,1,2.654-2.559,21.635,21.635,0,0,1,4.274-2.369,56.885,56.885,0,0,1,5.582-1.943,39.218,39.218,0,0,0,6.255-2.445,16.161,16.161,0,0,0,2.985-2.009,16.815,16.815,0,0,0,2.5-2.786,60.953,60.953,0,0,0,3.933-6.956,23.53,23.53,0,0,1,4.738-6.558,30.545,30.545,0,0,1,6.16-4.3c2.085-1.166,4.1-2.18,5.932-3.251a27.36,27.36,0,0,0,4.739-3.393,15.03,15.03,0,0,0,4.663-6.928A14.481,14.481,0,0,0,616.714,249.06Z" transform="translate(-493.96 -77.7)" fill="#fafafa"/>
      <path id="Pfad_1580" data-name="Pfad 1580" d="M559.07,270.261a.715.715,0,0,1-.085-.19,4.945,4.945,0,0,1-.18-.559,4.531,4.531,0,0,1,.095-2.274c.531-1.9,2.625-4.331,6-5.535,1.687-.578,3.592-.948,5.582-1.44a10.51,10.51,0,0,0,7.724-5.753,30.448,30.448,0,0,0,1.412-3.4,37.084,37.084,0,0,1,3-7.269,11.581,11.581,0,0,1,6.179-4.8,56.114,56.114,0,0,1,7.1-1.8,23.531,23.531,0,0,0,6.17-2.1,12.983,12.983,0,0,0,4.17-3.791,14.1,14.1,0,0,0,2.653-7.676,21.8,21.8,0,0,0-.2-3.033,9.867,9.867,0,0,1,.388,3.033,13.959,13.959,0,0,1-2.559,7.875,13.116,13.116,0,0,1-4.255,3.914A23.628,23.628,0,0,1,596,237.641a56.465,56.465,0,0,0-7.032,1.81,11.126,11.126,0,0,0-5.933,4.615,37.144,37.144,0,0,0-2.966,7.165,29.526,29.526,0,0,1-1.45,3.459,12.518,12.518,0,0,1-2.123,2.938,12.32,12.32,0,0,1-5.923,2.985c-2.009.512-3.9.834-5.563,1.384-3.288,1.118-5.373,3.421-5.933,5.26a4.806,4.806,0,0,0-.18,2.2,4.727,4.727,0,0,1,.171.806Z" transform="translate(-493.869 -76.176)" fill="#fafafa"/>
      <path id="Pfad_1581" data-name="Pfad 1581" d="M613.5,327a3.628,3.628,0,0,1,.066.6,6.3,6.3,0,0,1-.18,1.706,9.676,9.676,0,0,1-3.582,5.117,15.8,15.8,0,0,1-3.791,2.237c-1.45.616-3.052,1.109-4.738,1.63a39.16,39.16,0,0,0-5.127,1.9,14.644,14.644,0,0,0-4.558,3.4c-1.384,1.44-2.578,3.023-3.9,4.426a17.786,17.786,0,0,1-4.369,3.412,19.247,19.247,0,0,1-9.013,2.35,17.949,17.949,0,0,1-6.2-1.033,11.829,11.829,0,0,1-1.573-.673,2.5,2.5,0,0,1-.521-.294,4.019,4.019,0,0,1,.559.2,16.81,16.81,0,0,0,1.592.588,18.953,18.953,0,0,0,6.141.862,19.154,19.154,0,0,0,8.795-2.4,17.7,17.7,0,0,0,4.236-3.345c1.3-1.384,2.483-2.957,3.895-4.435a15.218,15.218,0,0,1,4.814-3.506,39.23,39.23,0,0,1,5.2-1.9,49.563,49.563,0,0,0,4.738-1.573,15.894,15.894,0,0,0,3.7-2.132,9.666,9.666,0,0,0,3.611-4.89A12.031,12.031,0,0,0,613.5,327Z" transform="translate(-494.251 -81.851)" fill="#fafafa"/>
      <path id="Pfad_1582" data-name="Pfad 1582" d="M608.962,191.837l-7.9.19a12.784,12.784,0,0,1-1.782,4.483c-6.634-11.467-11.723-26.82-12.993-32.989.19-.616.408-1.3.682-2.056a8.758,8.758,0,0,0-.1-3.469c-.227-1.374-.607-3.222-.72-4.075-.351-2.616-.777-3.023-1.687-2.729-1.232.407.512,7.326-.5,7.477-.55.076-1.213-2.293-1.4-4.236s-1.08-7.932-1.715-8.33c-.948-.588-1.772.341-1.526,2.274s.54,7.809-.483,7.894-1.9-9.847-1.9-9.847.161-2.161-1.033-2.113c-2.142.095-.464,10.557-.284,11.552.133.682-.948.815-1.08.066s-.625-9.922-2.843-9.847c-1.687,0,1.3,8.615.351,10.6s-1.592-6.748-3.194-6.634c-.6.047-1.042.161.057,5.1a112.01,112.01,0,0,0,3.791,11.571c2.54,13.694,13.685,57.506,31.151,49.488,9.78-4.492,13.742-24.375,13.742-24.375Z" transform="translate(-494.367 -72.095)" fill="#b78876"/>
      <path id="Pfad_1583" data-name="Pfad 1583" d="M575.647,156.523a.464.464,0,0,0,.227,0,.5.5,0,0,0,.351-.55c0-.588-.114-1.44-.246-2.549a35.571,35.571,0,0,1-.436-4.037c0-.8,0-1.649.047-2.549a9.377,9.377,0,0,1,.142-1.365c.076-.426.36-.948.692-.862h.057a.757.757,0,0,1,.7.644,3.716,3.716,0,0,1,.133,1.27h0a73.946,73.946,0,0,0,1.014,7.913c.076.351.151.711.265,1.071a4.072,4.072,0,0,0,.19.54,2.993,2.993,0,0,0,.161.284.521.521,0,0,0,.4.246.7.7,0,0,0,.6-.5,2.715,2.715,0,0,0,.18-.578,9.659,9.659,0,0,0,.152-1.156,34.557,34.557,0,0,0-.066-4.738,10.709,10.709,0,0,1-.095-2.379,1.327,1.327,0,0,1,.464-.881.5.5,0,0,1,.408-.047.777.777,0,0,1,.227.095.3.3,0,0,1,.1.142,12.08,12.08,0,0,1,.654,2.379c.171.834.313,1.7.445,2.559s.256,1.734.36,2.616a19.3,19.3,0,0,0,.436,2.7,10.435,10.435,0,0,0,.426,1.336,2.511,2.511,0,0,0,.4.673.559.559,0,0,0,.559.208.587.587,0,0,0,.389-.426,4.74,4.74,0,0,0,.1-1.478,13.564,13.564,0,0,0-.1-1.4c-.066-.8-.142-1.583-.171-2.36a9.169,9.169,0,0,1,0-1.147,1.894,1.894,0,0,1,.123-.493.462.462,0,0,1,.085-.142h.123c.625-.256.834.616,1,1.317s.237,1.5.388,2.246c.246,1.488.569,2.976.73,4.4a5.241,5.241,0,0,1-.076,2.047c-.227.682-.455,1.355-.673,2.028v.123a109.152,109.152,0,0,0,4.236,13.7c1.5,4.047,3,7.582,4.321,10.425s2.511,5.07,3.326,6.568l.948,1.7a3.181,3.181,0,0,0,.37.569,3.792,3.792,0,0,0-.294-.607l-.948-1.734c-.777-1.526-1.9-3.791-3.184-6.634s-2.748-6.378-4.208-10.425a113.158,113.158,0,0,1-4.151-13.666v.133c.218-.663.436-1.336.663-2.009a5.422,5.422,0,0,0,.114-2.265c-.171-1.488-.483-2.928-.73-4.426-.142-.739-.237-1.5-.389-2.274a4.169,4.169,0,0,0-.2-1.175,1.118,1.118,0,0,0-.521-.531,1.2,1.2,0,0,0-.749,0h-.152a.615.615,0,0,0-.218.123.835.835,0,0,0-.237.332,2.144,2.144,0,0,0-.161.644,8.953,8.953,0,0,0,0,1.232c0,.8.114,1.592.18,2.388,0,.464.076.948.095,1.374a4.606,4.606,0,0,1-.066,1.279c0,.095-.076.076,0,.123h0l-.057-.057a1.9,1.9,0,0,1-.284-.512,9.315,9.315,0,0,1-.408-1.26,17.612,17.612,0,0,1-.427-2.625q-.152-1.336-.37-2.644c-.133-.872-.284-1.725-.455-2.578a11.539,11.539,0,0,0-.72-2.53.805.805,0,0,0-.294-.332,1.635,1.635,0,0,0-.351-.152,1.052,1.052,0,0,0-.806.114,1.772,1.772,0,0,0-.7,1.232,4.6,4.6,0,0,0,0,1.3c0,.408.095.806.123,1.2a35.068,35.068,0,0,1,.085,4.663,8.086,8.086,0,0,1-.142,1.1,2.115,2.115,0,0,1-.142.493.578.578,0,0,1-.1.171c0,.085-.066,0-.057.114v-.123a1.888,1.888,0,0,1-.114-.2c-.066-.152-.123-.322-.18-.483-.1-.341-.18-.692-.256-1.033a75.321,75.321,0,0,1-1.071-7.847h0a4.125,4.125,0,0,0-.161-1.412,1.327,1.327,0,0,0-.37-.625.948.948,0,0,0-.7-.265h.057a.824.824,0,0,0-.824.389,2.1,2.1,0,0,0-.284.739,9.56,9.56,0,0,0-.133,1.422V149.4a33.069,33.069,0,0,0,.521,4.056c.161,1.1.284,1.952.341,2.53a.445.445,0,0,1-.275.493A1.433,1.433,0,0,0,575.647,156.523Z" transform="translate(-494.743 -72.086)" fill="#a36957"/>
      <path id="Pfad_1584" data-name="Pfad 1584" d="M509.471,208.23a20.291,20.291,0,0,0-5.487.635c-4.9,1.289-13.344,6.406-13.694,12.727h6.141s-3.44,7.316-2.436,6.634c2.625-1.763,7.837-7.06,7.837-7.06Z" transform="translate(-490.29 -75.496)" fill="#b78876"/>
      <path id="Pfad_1585" data-name="Pfad 1585" d="M598.748,90.745c-.142,0-.692-5.061-1.241-11.372S596.616,68,596.748,68s.692,5.061,1.242,11.372S598.881,90.745,598.748,90.745Z" transform="translate(-495.857 -68)" fill="#263238"/>
      <path id="Pfad_1586" data-name="Pfad 1586" d="M626.225,68.41c.1.076-4.037,6.094-9.259,13.438S607.414,95.116,607.3,95s4.037-6.094,9.259-13.438S626.112,68.334,626.225,68.41Z" transform="translate(-496.411 -68.021)" fill="#263238"/>
      <path id="Pfad_1587" data-name="Pfad 1587" d="M637.872,97.189c0,.133-4.814,1.241-10.8,2.473s-10.879,2.123-10.908,1.99,4.8-1.241,10.8-2.473S637.805,97.057,637.872,97.189Z" transform="translate(-496.874 -69.526)" fill="#263238"/>
    </g>
    <g id="freepik--Folder--inject-18" transform="translate(168.108 177.96)">
      <path id="Pfad_1588" data-name="Pfad 1588" d="M296.908,233.9l-33.548,172.29L259,428.744l223.655-1.08c10.046-.047,18.954-8.965,22.167-22.214L544.492,242.8c2.455-10.055-2.928-20.518-10.548-20.508l-226.422.237C302.594,222.517,298.178,227.18,296.908,233.9Z" transform="translate(-177.141 -189.993)" fill="#0069a3"/>
      <g id="Gruppe_1889" data-name="Gruppe 1889" transform="translate(81.859 32.297)" opacity="0.5">
        <path id="Pfad_1589" data-name="Pfad 1589" d="M296.908,233.9l-33.548,172.29L259,428.744l223.655-1.08c10.046-.047,18.954-8.965,22.167-22.214L544.492,242.8c2.455-10.055-2.928-20.518-10.548-20.508l-226.422.237C302.594,222.517,298.178,227.18,296.908,233.9Z" transform="translate(-259 -222.29)" fill="#002a41"/>
      </g>
      <path id="Pfad_1590" data-name="Pfad 1590" d="M456.709,392.712,433.017,201.838c-.948-7.818-7.193-13.656-14.556-13.628l-51.933.161a14.215,14.215,0,0,0-10.263,4.549l-24.64,26.223L187.2,219.92c-8.823.047-15.608,8.406-14.443,17.788l22,176.413c.948,7.809,7.193,13.637,14.538,13.628l251.754-.5c28.033.578,30.715-7.7,30.715-7.7C459.571,426.668,456.709,392.76,456.709,392.712Z" transform="translate(-172.622 -188.21)" fill="#0069a3"/>
    </g>
  </g>
</svg>
